<svg xmlns="http://www.w3.org/2000/svg" xmlns:xlink="http://www.w3.org/1999/xlink" contentStyleType="text/css" data-diagram-type="DESCRIPTION" height="703px" preserveAspectRatio="none" style="width:390px;height:703px;background:#FFFFFF;" version="1.1" viewBox="0 0 390 703" width="390px" zoomAndPan="magnify"><defs/><g><!--cluster Sistema Pok?dex--><g class="cluster" data-entity="Sistema Pok&#233;dex" data-source-line="4" data-uid="ent0003" id="cluster_Sistema Pok&#233;dex"><rect fill="none" height="690" rx="2.5" ry="2.5" style="stroke:#181818;stroke-width:1;" width="230.37" x="154.2" y="7"/><text fill="#000000" font-family="sans-serif" font-size="14" font-weight="bold" lengthAdjust="spacing" textLength="135.543" x="201.6135" y="21.9951">Sistema Pok&#233;dex</text></g><!--entity ManterPokemon--><g class="entity" data-entity="ManterPokemon" data-source-line="5" data-uid="ent0004" id="entity_ManterPokemon"><ellipse cx="269.3857" cy="358.0031" fill="#F1F1F1" rx="74.9657" ry="17.3931" style="stroke:#181818;stroke-width:0.5;"/><text fill="#000000" font-family="sans-serif" font-size="14" lengthAdjust="spacing" textLength="118.6445" x="210.0634" y="362.6516">Manter Pok&#233;mon</text></g><!--entity ManterAPI--><g class="entity" data-entity="ManterAPI" data-source-line="6" data-uid="ent0005" id="entity_ManterAPI"><ellipse cx="269.3918" cy="666.0036" fill="#F1F1F1" rx="56.7318" ry="14.5236" style="stroke:#181818;stroke-width:0.5;"/><text fill="#000000" font-family="sans-serif" font-size="14" lengthAdjust="spacing" textLength="75.9883" x="231.3977" y="670.6521">Manter API</text></g><!--entity InserirPokemon--><g class="entity" data-entity="InserirPokemon" data-source-line="8" data-uid="ent0006" id="entity_InserirPokemon"><ellipse cx="269.3871" cy="131.9974" fill="#F1F1F1" rx="72.8871" ry="16.9774" style="stroke:#181818;stroke-width:0.5;"/><text fill="#000000" font-family="sans-serif" font-size="14" lengthAdjust="spacing" textLength="113.5654" x="212.6044" y="136.6459">Inserir Pok&#233;mon</text></g><!--entity PesquisarPokemon--><g class="entity" data-entity="PesquisarPokemon" data-source-line="9" data-uid="ent0007" id="entity_PesquisarPokemon"><ellipse cx="269.3902" cy="203" fill="#F1F1F1" rx="82.6502" ry="18.93" style="stroke:#181818;stroke-width:0.5;"/><text fill="#000000" font-family="sans-serif" font-size="14" lengthAdjust="spacing" textLength="136.8828" x="200.9488" y="207.6485">Pesquisar Pok&#233;mon</text></g><!--entity ListarPokemon--><g class="entity" data-entity="ListarPokemon" data-source-line="10" data-uid="ent0008" id="entity_ListarPokemon"><ellipse cx="269.3905" cy="273.0041" fill="#F1F1F1" rx="70.6705" ry="16.5341" style="stroke:#181818;stroke-width:0.5;"/><text fill="#000000" font-family="sans-serif" font-size="14" lengthAdjust="spacing" textLength="108.0625" x="215.3593" y="277.6525">Listar Pok&#233;mon</text></g><!--entity VisualizarPokemon--><g class="entity" data-entity="VisualizarPokemon" data-source-line="11" data-uid="ent0009" id="entity_VisualizarPokemon"><ellipse cx="269.3907" cy="61.0041" fill="#F1F1F1" rx="82.6707" ry="18.9341" style="stroke:#181818;stroke-width:0.5;"/><text fill="#000000" font-family="sans-serif" font-size="14" lengthAdjust="spacing" textLength="136.9307" x="200.9254" y="65.6526">Visualizar Pok&#233;mon</text></g><!--entity ConsultarAPI--><g class="entity" data-entity="ConsultarAPI" data-source-line="13" data-uid="ent0010" id="entity_ConsultarAPI"><ellipse cx="269.3949" cy="505.997" fill="#F1F1F1" rx="65.0849" ry="15.417" style="stroke:#181818;stroke-width:0.5;"/><text fill="#000000" font-family="sans-serif" font-size="14" lengthAdjust="spacing" textLength="93.6934" x="222.5482" y="510.6454">Consultar API</text></g><!--entity ValidarAPI--><g class="entity" data-entity="ValidarAPI" data-source-line="14" data-uid="ent0011" id="entity_ValidarAPI"><ellipse cx="269.3919" cy="578.0024" fill="#F1F1F1" rx="97.2119" ry="21.8424" style="stroke:#181818;stroke-width:0.5;"/><text fill="#000000" font-family="sans-serif" font-size="14" lengthAdjust="spacing" textLength="169.8936" x="184.4451" y="582.6508">Validar respostas da API</text></g><!--entity MostrarAPI--><g class="entity" data-entity="MostrarAPI" data-source-line="15" data-uid="ent0012" id="entity_MostrarAPI"><ellipse cx="269.3927" cy="432.9965" fill="#F1F1F1" rx="99.1827" ry="22.2365" style="stroke:#181818;stroke-width:0.5;"/><text fill="#000000" font-family="sans-serif" font-size="14" lengthAdjust="spacing" textLength="174.2549" x="182.2653" y="437.645">Mostrar respostas da API</text></g><!--entity User--><g class="entity" data-entity="User" data-source-line="2" data-uid="ent0002" id="entity_User"><ellipse cx="32.6021" cy="508.35" fill="#F1F1F1" rx="8" ry="8" style="stroke:#181818;stroke-width:0.5;"/><path d="M32.6021,516.35 L32.6021,543.35 M19.6021,524.35 L45.6021,524.35 M32.6021,543.35 L19.6021,558.35 M32.6021,543.35 L45.6021,558.35" fill="none" style="stroke:#181818;stroke-width:0.5;"/><text fill="#000000" font-family="sans-serif" font-size="14" lengthAdjust="spacing" textLength="53.2041" x="6" y="572.8451">Usu&#225;rio</text></g><!--link User to ManterPokemon--><g class="link" data-entity-1="User" data-entity-2="ManterPokemon" data-source-line="18" data-uid="lnk13" id="link_User_ManterPokemon"><path d="M54.19,499.42 C73.69,466.48 105.94,420.23 146.2,393 C164.02,380.95 185.99,373 206.37,367.77" fill="none" id="User-ManterPokemon" style="stroke:#181818;stroke-width:1;"/></g><!--link User to ManterAPI--><g class="link" data-entity-1="User" data-entity-2="ManterAPI" data-source-line="19" data-uid="lnk14" id="link_User_ManterAPI"><path d="M52.25,576.46 C61.43,591.73 73.86,608.21 89.2,619 C126.17,644.99 176.53,656.61 214.45,661.8" fill="none" id="User-ManterAPI" style="stroke:#181818;stroke-width:1;"/></g><!--link ManterPokemon to InserirPokemon--><g class="link" data-entity-1="ManterPokemon" data-entity-2="InserirPokemon" data-source-line="21" data-uid="lnk15" id="link_ManterPokemon_InserirPokemon"><path d="M202.2,366.02 C170.96,365.74 136.16,358.95 115.15,334.5 C107,325.01 83.23,234.77 146.2,167 C160.35,151.77 174.7791,144.4552 194.7791,139.4552" fill="none" id="ManterPokemon-to-InserirPokemon" style="stroke:#181818;stroke-width:1;stroke-dasharray:7.0,7.0;"/><polygon fill="#181818" points="200.6,138,190.8986,136.3023,195.7493,139.2127,192.8389,144.0634,200.6,138" style="stroke:#181818;stroke-width:1;"/><text fill="#000000" font-family="sans-serif" font-size="13" lengthAdjust="spacing" textLength="47.0996" x="90.2" y="330.5669">include</text></g><!--link ManterPokemon to PesquisarPokemon--><g class="link" data-entity-1="ManterPokemon" data-entity-2="PesquisarPokemon" data-source-line="22" data-uid="lnk16" id="link_ManterPokemon_PesquisarPokemon"><path d="M216.88,345.25 C193.09,337.37 165.95,325.19 146.2,307 C118.92,281.85 91.24,257.87 115.15,229.5 C133.45,207.79 156.5309,199.89 184.5109,197.55" fill="none" id="ManterPokemon-to-PesquisarPokemon" style="stroke:#181818;stroke-width:1;stroke-dasharray:7.0,7.0;"/><polygon fill="#181818" points="190.49,197.05,181.1879,193.814,185.5074,197.4667,181.8547,201.7861,190.49,197.05" style="stroke:#181818;stroke-width:1;"/><text fill="#000000" font-family="sans-serif" font-size="13" lengthAdjust="spacing" textLength="47.0996" x="90.2" y="242.5669">include</text></g><!--link ManterPokemon to ListarPokemon--><g class="link" data-entity-1="ManterPokemon" data-entity-2="ListarPokemon" data-source-line="23" data-uid="lnk17" id="link_ManterPokemon_ListarPokemon"><path d="M269.39,340.39 C269.39,325.61 269.39,310.62 269.39,296.01" fill="none" id="ManterPokemon-to-ListarPokemon" style="stroke:#181818;stroke-width:1;stroke-dasharray:7.0,7.0;"/><polygon fill="#181818" points="269.39,290.01,265.39,299.01,269.39,295.01,273.39,299.01,269.39,290.01" style="stroke:#181818;stroke-width:1;"/><text fill="#000000" font-family="sans-serif" font-size="13" lengthAdjust="spacing" textLength="47.0996" x="234.39" y="319.6369">include</text></g><!--link ManterPokemon to VisualizarPokemon--><g class="link" data-entity-1="ManterPokemon" data-entity-2="VisualizarPokemon" data-source-line="24" data-uid="lnk18" id="link_ManterPokemon_VisualizarPokemon"><path d="M208.98,347.46 C173.7,337.64 132.76,318.91 115.15,283.5 C108.71,270.55 92.01,158.48 146.2,98 C158.87,83.86 170.9664,76.7754 189.1364,71.2854" fill="none" id="ManterPokemon-to-VisualizarPokemon" style="stroke:#181818;stroke-width:1;stroke-dasharray:7.0,7.0;"/><polygon fill="#181818" points="194.88,69.55,185.1077,68.3241,190.0937,70.9962,187.4216,75.9821,194.88,69.55" style="stroke:#181818;stroke-width:1;"/><text fill="#000000" font-family="sans-serif" font-size="13" lengthAdjust="spacing" textLength="47.0996" x="90.2" y="279.5669">include</text></g><!--link ManterAPI to ConsultarAPI--><g class="link" data-entity-1="ManterAPI" data-entity-2="ConsultarAPI" data-source-line="26" data-uid="lnk19" id="link_ManterAPI_ConsultarAPI"><path d="M224.08,656.84 C198.56,649.68 167.6,637.42 146.2,617 C116.95,589.09 89,562.33 115.15,531.5 C138.06,504.49 171.6907,498.2983 205.0507,498.8083" fill="none" id="ManterAPI-to-ConsultarAPI" style="stroke:#181818;stroke-width:1;stroke-dasharray:7.0,7.0;"/><polygon fill="#181818" points="211.05,498.9,202.1122,494.7629,206.0506,498.8236,201.9899,502.762,211.05,498.9" style="stroke:#181818;stroke-width:1;"/><text fill="#000000" font-family="sans-serif" font-size="13" lengthAdjust="spacing" textLength="47.0996" x="90.2" y="544.5669">include</text></g><!--link ManterAPI to ValidarAPI--><g class="link" data-entity-1="ManterAPI" data-entity-2="ValidarAPI" data-source-line="27" data-uid="lnk20" id="link_ManterAPI_ValidarAPI"><path d="M269.39,651.07 C269.39,637.15 269.39,622.19 269.39,606.28" fill="none" id="ManterAPI-to-ValidarAPI" style="stroke:#181818;stroke-width:1;stroke-dasharray:7.0,7.0;"/><polygon fill="#181818" points="269.39,600.28,265.39,609.28,269.39,605.28,273.39,609.28,269.39,600.28" style="stroke:#181818;stroke-width:1;"/><text fill="#000000" font-family="sans-serif" font-size="13" lengthAdjust="spacing" textLength="47.0996" x="234.39" y="630.2269">include</text></g><!--link ManterAPI to MostrarAPI--><g class="link" data-entity-1="ManterAPI" data-entity-2="MostrarAPI" data-source-line="28" data-uid="lnk21" id="link_ManterAPI_MostrarAPI"><path d="M214.19,662.09 C179.59,656.44 137.45,643.03 115.15,611.5 C102.71,593.91 76.07,547.76 146.2,473 C157.74,460.7 167.4642,454.2658 183.4042,448.3558" fill="none" id="ManterAPI-to-MostrarAPI" style="stroke:#181818;stroke-width:1;stroke-dasharray:7.0,7.0;"/><polygon fill="#181818" points="189.03,446.27,179.2008,445.6482,184.3419,448.0082,181.9819,453.1493,189.03,446.27" style="stroke:#181818;stroke-width:1;"/><text fill="#000000" font-family="sans-serif" font-size="13" lengthAdjust="spacing" textLength="47.0996" x="90.2" y="607.5669">include</text></g><!--SRC=[VP51JiCm44NtFiKe-t805aY8LIKgHK9bRyL36P7QuB4bHDN3iEGSlHZZ9aqS9-qoVzx_cVbkyIr0SE1fznx0aCScaBDADy5vgBOSJx-UN0MQOSlebKg4jhiMeNeX3hZNKBkFqv_1xmeE2Y0oDffblD4seE-cUsVF6Pqc4ego03_MwuoJBvL3QoihK17PYmkPDV9N9DQ5OP0NBCzoKibtsWByIXnrIp-bOTGlfjprv2p7DltbSkoWf7lpV0anmddaJoSxC1WzcFfXOTa8vwzP-c6o79LApmchLV4aK_Ny01C0xXwAnk4Uo3PjD3WdowfliPEQRu6pUZDO3NidCYzsbjWpOu_NYB6saVW7]--></g></svg>