<svg xmlns="http://www.w3.org/2000/svg" xmlns:xlink="http://www.w3.org/1999/xlink" contentStyleType="text/css" data-diagram-type="DESCRIPTION" height="352px" preserveAspectRatio="none" style="width:538px;height:352px;background:#FFFFFF;" version="1.1" viewBox="0 0 538 352" width="538px" zoomAndPan="magnify"><defs/><g><!--cluster Sistema--><g class="cluster" data-entity="Sistema" data-source-line="6" data-uid="ent0004" id="cluster_Sistema"><path d="M105.7,183 L170.1375,183 A3.75,3.75 0 0 1 172.6375,185.5 L179.6375,205.2969 L298.05,205.2969 A2.5,2.5 0 0 1 300.55,207.7969 L300.55,342.5 A2.5,2.5 0 0 1 298.05,345 L105.7,345 A2.5,2.5 0 0 1 103.2,342.5 L103.2,185.5 A2.5,2.5 0 0 1 105.7,183" fill="none" style="stroke:#000000;stroke-width:1.5;"/><line style="stroke:#000000;stroke-width:1.5;" x1="103.2" x2="179.6375" y1="205.2969" y2="205.2969"/><text fill="#000000" font-family="sans-serif" font-size="14" font-weight="bold" lengthAdjust="spacing" textLength="63.4375" x="107.2" y="197.9951">Sistema</text></g><!--cluster API--><g class="cluster" data-entity="API" data-source-line="11" data-uid="ent0007" id="cluster_API"><path d="M331.05,6 L358.3547,6 A3.75,3.75 0 0 1 360.8547,8.5 L367.8547,28.2969 L528.86,28.2969 A2.5,2.5 0 0 1 531.36,30.7969 L531.36,230.5 A2.5,2.5 0 0 1 528.86,233 L331.05,233 A2.5,2.5 0 0 1 328.55,230.5 L328.55,8.5 A2.5,2.5 0 0 1 331.05,6" fill="none" style="stroke:#000000;stroke-width:1.5;"/><line style="stroke:#000000;stroke-width:1.5;" x1="328.55" x2="367.8547" y1="28.2969" y2="28.2969"/><text fill="#000000" font-family="sans-serif" font-size="14" font-weight="bold" lengthAdjust="spacing" textLength="26.3047" x="332.55" y="20.9951">API</text></g><!--entity UC0--><g class="entity" data-entity="UC0" data-source-line="7" data-uid="ent0005" id="entity_UC0"><ellipse cx="201.8702" cy="310" fill="#F1F1F1" rx="82.6502" ry="18.93" style="stroke:#181818;stroke-width:0.5;"/><text fill="#000000" font-family="sans-serif" font-size="14" lengthAdjust="spacing" textLength="136.8828" x="133.4288" y="314.6485">Pesquisar Pok&#233;mon</text></g><!--entity UC1--><g class="entity" data-entity="UC1" data-source-line="8" data-uid="ent0006" id="entity_UC1"><ellipse cx="201.8707" cy="237.0041" fill="#F1F1F1" rx="82.6707" ry="18.9341" style="stroke:#181818;stroke-width:0.5;"/><text fill="#000000" font-family="sans-serif" font-size="14" lengthAdjust="spacing" textLength="136.9307" x="133.4054" y="241.6526">Visualizar Pok&#233;mon</text></g><!--entity UC2--><g class="entity" data-entity="UC2" data-source-line="12" data-uid="ent0008" id="entity_UC2"><ellipse cx="429.9482" cy="198.0036" fill="#F1F1F1" rx="83.5182" ry="19.1036" style="stroke:#181818;stroke-width:0.5;"/><text fill="#000000" font-family="sans-serif" font-size="14" lengthAdjust="spacing" textLength="138.8994" x="360.4985" y="202.6521">Valida Resposta API</text></g><!--entity UC3--><g class="entity" data-entity="UC3" data-source-line="13" data-uid="ent0009" id="entity_UC3"><ellipse cx="429.9531" cy="128.9986" fill="#F1F1F1" rx="62.9431" ry="14.9886" style="stroke:#181818;stroke-width:0.5;"/><text fill="#000000" font-family="sans-serif" font-size="14" lengthAdjust="spacing" textLength="87.9375" x="385.9844" y="133.6471">Consulta API</text></g><!--entity UC4--><g class="entity" data-entity="UC4" data-source-line="14" data-uid="ent0010" id="entity_UC4"><ellipse cx="429.9465" cy="60.0013" fill="#F1F1F1" rx="85.4065" ry="19.4813" style="stroke:#181818;stroke-width:0.5;"/><text fill="#000000" font-family="sans-serif" font-size="14" lengthAdjust="spacing" textLength="143.2607" x="358.3162" y="64.6497">Mostra Resposta API</text></g><!--entity s--><g class="entity" data-entity="s" data-source-line="3" data-uid="ent0002" id="entity_s"><ellipse cx="201.8748" cy="99.35" fill="#F1F1F1" rx="8" ry="8" style="stroke:#181818;stroke-width:0.5;"/><path d="M201.8748,107.35 L201.8748,134.35 M188.8748,115.35 L214.8748,115.35 M201.8748,134.35 L188.8748,149.35 M201.8748,134.35 L214.8748,149.35" fill="none" style="stroke:#181818;stroke-width:0.5;"/><text fill="#000000" font-family="sans-serif" font-size="14" lengthAdjust="spacing" textLength="56.3896" x="173.68" y="163.8451">Sistema</text></g><!--entity u--><g class="entity" data-entity="u" data-source-line="4" data-uid="ent0003" id="entity_u"><ellipse cx="32.6021" cy="207.35" fill="#F1F1F1" rx="8" ry="8" style="stroke:#181818;stroke-width:0.5;"/><path d="M32.6021,215.35 L32.6021,242.35 M19.6021,223.35 L45.6021,223.35 M32.6021,242.35 L19.6021,257.35 M32.6021,242.35 L45.6021,257.35" fill="none" style="stroke:#181818;stroke-width:0.5;"/><text fill="#000000" font-family="sans-serif" font-size="14" lengthAdjust="spacing" textLength="53.2041" x="6" y="271.8451">Usu&#225;rio</text></g><!--link u to s--><g class="link" data-entity-1="u" data-entity-2="s" data-source-line="17" data-uid="lnk11" id="link_u_s"><path d="M59.37,220.36 C90.26,200.42 136.7489,170.4039 168.3689,149.9939" fill="none" id="u-to-s" style="stroke:#181818;stroke-width:1;"/><polygon fill="#181818" points="173.41,146.74,163.6792,148.2601,169.2091,149.4516,168.0177,154.9815,173.41,146.74" style="stroke:#181818;stroke-width:1;"/></g><!--link s to UC2--><g class="link" data-entity-1="s" data-entity-2="UC2" data-source-line="18" data-uid="lnk12" id="link_s_UC2"><path d="M230.15,137.32 C266.79,148.51 326.8615,166.8379 372.6815,180.8279" fill="none" id="s-to-UC2" style="stroke:#181818;stroke-width:1;"/><polygon fill="#181818" points="378.42,182.58,370.9803,176.1262,373.6379,181.1199,368.6442,183.7775,378.42,182.58" style="stroke:#181818;stroke-width:1;"/></g><!--link s to UC3--><g class="link" data-entity-1="s" data-entity-2="UC3" data-source-line="19" data-uid="lnk13" id="link_s_UC3"><path d="M230.15,129 C263.73,129 315.83,129 360.57,129" fill="none" id="s-to-UC3" style="stroke:#181818;stroke-width:1;"/><polygon fill="#181818" points="366.57,129,357.57,125,361.57,129,357.57,133,366.57,129" style="stroke:#181818;stroke-width:1;"/></g><!--link s to UC4--><g class="link" data-entity-1="s" data-entity-2="UC4" data-source-line="20" data-uid="lnk14" id="link_s_UC4"><path d="M230.15,120.68 C266.55,109.57 326.0116,91.4224 371.7916,77.4424" fill="none" id="s-to-UC4" style="stroke:#181818;stroke-width:1;"/><polygon fill="#181818" points="377.53,75.69,367.7542,74.4929,372.748,77.1503,370.0906,82.1441,377.53,75.69" style="stroke:#181818;stroke-width:1;"/></g><!--link u to UC0--><g class="link" data-entity-1="u" data-entity-2="UC0" data-source-line="21" data-uid="lnk15" id="link_u_UC0"><path d="M59.69,253.74 C70.44,260.24 83.17,267.44 95.2,273 C112.94,281.19 127.3459,286.7388 145.2159,292.7788" fill="none" id="u-to-UC0" style="stroke:#181818;stroke-width:1;"/><polygon fill="#181818" points="150.9,294.7,143.6547,288.0288,146.1633,293.099,141.093,295.6076,150.9,294.7" style="stroke:#181818;stroke-width:1;"/></g><!--link u to UC1--><g class="link" data-entity-1="u" data-entity-2="UC1" data-source-line="22" data-uid="lnk16" id="link_u_UC1"><path d="M59.37,237 C75.5,237 91.26,237 112.88,237" fill="none" id="u-to-UC1" style="stroke:#181818;stroke-width:1;"/><polygon fill="#181818" points="118.88,237,109.88,233,113.88,237,109.88,241,118.88,237" style="stroke:#181818;stroke-width:1;"/></g><!--SRC=[ROyn3e9044NxFSM4daI4siHGMPWG3VGJ6743ihYpssWyZANdu6Ao1X2YrVpClFz_fgQJ0QD0o_9ie92QSYDL8mJcHcauIZPqGK067bOfs-wffN8xAqIBUOKbJUHT05Yc79d0IuYlLZ9gI5JLlIwgyPmjZLTpAfDiiPQtNomGZs_3DjajqxFUL20SY5l51Xqm-DPpB5ODstfn3-VtVM_MVsCYLs_1zpVzz_oPBdjKuQIYWNAFZIfu0m00]--></g></svg>